<mxfile host="app.diagrams.net" modified="2024-07-01T19:37:25.337Z" agent="Mozilla/5.0 (Macintosh; Intel Mac OS X 10.15; rv:109.0) Gecko/20100101 Firefox/115.0" etag="5pSzTqvMMslpRPzrHkUd" version="24.5.3" type="device">
  <diagram name="Page-1" id="nJC8odBg4cuvwxP252WG">
    <mxGraphModel dx="949" dy="915" grid="1" gridSize="10" guides="1" tooltips="1" connect="1" arrows="1" fold="1" page="1" pageScale="1" pageWidth="850" pageHeight="1100" math="0" shadow="0">
      <root>
        <mxCell id="0" />
        <mxCell id="1" parent="0" />
        <mxCell id="yiWajU5kOBOnxE6XPdEK-1" value="PRODUCTION VPC" style="sketch=0;outlineConnect=0;gradientColor=none;html=1;whiteSpace=wrap;fontSize=12;fontStyle=0;shape=mxgraph.aws4.group;grIcon=mxgraph.aws4.group_vpc;strokeColor=#879196;fillColor=none;verticalAlign=top;align=left;spacingLeft=30;fontColor=#879196;dashed=0;" vertex="1" parent="1">
          <mxGeometry x="10" y="90" width="670" height="510" as="geometry" />
        </mxCell>
        <mxCell id="yiWajU5kOBOnxE6XPdEK-2" value="Instances" style="outlineConnect=0;dashed=0;verticalLabelPosition=bottom;verticalAlign=top;align=center;html=1;shape=mxgraph.aws3.ec2;fillColor=#F58534;gradientColor=none;" vertex="1" parent="1">
          <mxGeometry x="120" y="220" width="76.5" height="93" as="geometry" />
        </mxCell>
        <mxCell id="yiWajU5kOBOnxE6XPdEK-3" value="" style="outlineConnect=0;dashed=0;verticalLabelPosition=bottom;verticalAlign=top;align=center;html=1;shape=mxgraph.aws3.rds;fillColor=#2E73B8;gradientColor=none;" vertex="1" parent="1">
          <mxGeometry x="329" y="230" width="72" height="81" as="geometry" />
        </mxCell>
        <mxCell id="yiWajU5kOBOnxE6XPdEK-4" value="Auto Scaling for the Instances&#xa;" style="rounded=1;arcSize=10;dashed=1;fillColor=none;gradientColor=none;dashPattern=8 3 1 3;strokeWidth=2;align=center;labelPosition=center;verticalLabelPosition=bottom;verticalAlign=top;" vertex="1" parent="1">
          <mxGeometry x="58.5" y="166.75" width="199.5" height="199.5" as="geometry" />
        </mxCell>
        <mxCell id="yiWajU5kOBOnxE6XPdEK-5" value="Auto Scaling for the RDS" style="rounded=1;arcSize=10;dashed=1;fillColor=none;gradientColor=none;dashPattern=8 3 1 3;strokeWidth=2;align=center;labelPosition=center;verticalLabelPosition=bottom;verticalAlign=top;" vertex="1" parent="1">
          <mxGeometry x="290" y="170.75" width="199.5" height="199.5" as="geometry" />
        </mxCell>
        <mxCell id="yiWajU5kOBOnxE6XPdEK-6" value="Amazon S3" style="sketch=0;outlineConnect=0;fontColor=#232F3E;gradientColor=none;strokeColor=#ffffff;fillColor=#232F3E;dashed=0;verticalLabelPosition=middle;verticalAlign=bottom;align=center;html=1;whiteSpace=wrap;fontSize=10;fontStyle=1;spacing=3;shape=mxgraph.aws4.productIcon;prIcon=mxgraph.aws4.s3;" vertex="1" parent="1">
          <mxGeometry x="580" y="120" width="80" height="100" as="geometry" />
        </mxCell>
        <mxCell id="yiWajU5kOBOnxE6XPdEK-7" value="IAM" style="outlineConnect=0;dashed=0;verticalLabelPosition=bottom;verticalAlign=top;align=center;html=1;shape=mxgraph.aws3.iam;fillColor=#759C3E;gradientColor=none;" vertex="1" parent="1">
          <mxGeometry x="401" y="430.5" width="42" height="81" as="geometry" />
        </mxCell>
        <mxCell id="yiWajU5kOBOnxE6XPdEK-8" value="1 kubernetes Cluster" style="sketch=0;outlineConnect=0;fontColor=#232F3E;gradientColor=none;strokeColor=#ffffff;fillColor=#232F3E;dashed=0;verticalLabelPosition=bottom;verticalAlign=top;align=center;html=1;whiteSpace=wrap;fontSize=10;fontStyle=1;spacing=3;shape=mxgraph.aws4.productIcon;prIcon=mxgraph.aws4.eks;labelPosition=center;" vertex="1" parent="1">
          <mxGeometry x="90" y="430.5" width="80" height="100" as="geometry" />
        </mxCell>
        <mxCell id="yiWajU5kOBOnxE6XPdEK-9" value="Security group" style="fillColor=none;strokeColor=#DD3522;verticalAlign=top;fontStyle=0;fontColor=#DD3522;whiteSpace=wrap;html=1;" vertex="1" parent="1">
          <mxGeometry x="82.88" y="205.5" width="133.75" height="130" as="geometry" />
        </mxCell>
        <mxCell id="yiWajU5kOBOnxE6XPdEK-10" value="TEST VPC" style="sketch=0;outlineConnect=0;gradientColor=none;html=1;whiteSpace=wrap;fontSize=12;fontStyle=0;shape=mxgraph.aws4.group;grIcon=mxgraph.aws4.group_vpc;strokeColor=#879196;fillColor=none;verticalAlign=top;align=left;spacingLeft=30;fontColor=#879196;dashed=0;" vertex="1" parent="1">
          <mxGeometry x="10" y="700" width="670" height="510" as="geometry" />
        </mxCell>
        <mxCell id="yiWajU5kOBOnxE6XPdEK-11" value="Instances" style="outlineConnect=0;dashed=0;verticalLabelPosition=bottom;verticalAlign=top;align=center;html=1;shape=mxgraph.aws3.ec2;fillColor=#F58534;gradientColor=none;" vertex="1" parent="1">
          <mxGeometry x="130" y="840" width="76.5" height="93" as="geometry" />
        </mxCell>
        <mxCell id="yiWajU5kOBOnxE6XPdEK-12" value="" style="outlineConnect=0;dashed=0;verticalLabelPosition=bottom;verticalAlign=top;align=center;html=1;shape=mxgraph.aws3.rds;fillColor=#2E73B8;gradientColor=none;" vertex="1" parent="1">
          <mxGeometry x="339" y="850" width="72" height="81" as="geometry" />
        </mxCell>
        <mxCell id="yiWajU5kOBOnxE6XPdEK-13" value="Auto Scaling for the Instances&#xa;" style="rounded=1;arcSize=10;dashed=1;fillColor=none;gradientColor=none;dashPattern=8 3 1 3;strokeWidth=2;align=center;labelPosition=center;verticalLabelPosition=bottom;verticalAlign=top;" vertex="1" parent="1">
          <mxGeometry x="68.5" y="786.75" width="199.5" height="199.5" as="geometry" />
        </mxCell>
        <mxCell id="yiWajU5kOBOnxE6XPdEK-14" value="Auto Scaling for the RDS" style="rounded=1;arcSize=10;dashed=1;fillColor=none;gradientColor=none;dashPattern=8 3 1 3;strokeWidth=2;align=center;labelPosition=center;verticalLabelPosition=bottom;verticalAlign=top;" vertex="1" parent="1">
          <mxGeometry x="300" y="790.75" width="199.5" height="199.5" as="geometry" />
        </mxCell>
        <mxCell id="yiWajU5kOBOnxE6XPdEK-15" value="Amazon S3" style="sketch=0;outlineConnect=0;fontColor=#232F3E;gradientColor=none;strokeColor=#ffffff;fillColor=#232F3E;dashed=0;verticalLabelPosition=middle;verticalAlign=bottom;align=center;html=1;whiteSpace=wrap;fontSize=10;fontStyle=1;spacing=3;shape=mxgraph.aws4.productIcon;prIcon=mxgraph.aws4.s3;" vertex="1" parent="1">
          <mxGeometry x="590" y="740" width="80" height="100" as="geometry" />
        </mxCell>
        <mxCell id="yiWajU5kOBOnxE6XPdEK-18" value="Security group" style="fillColor=none;strokeColor=#DD3522;verticalAlign=top;fontStyle=0;fontColor=#DD3522;whiteSpace=wrap;html=1;" vertex="1" parent="1">
          <mxGeometry x="92.88" y="825.5" width="133.75" height="130" as="geometry" />
        </mxCell>
      </root>
    </mxGraphModel>
  </diagram>
</mxfile>
